<svg id="svg" version="1.1" xmlns="http://www.w3.org/2000/svg" xmlns:xlink="http://www.w3.org/1999/xlink" width="400" height="400" viewBox="0, 0, 400,400"><g id="svgg"><path id="path0" d="M195.114 133.826 C 187.160 139.762,187.643 139.250,186.086 143.400 C 184.528 147.553,184.938 147.230,179.532 148.557 L 175.916 149.444 174.091 155.185 C 173.087 158.343,171.577 163.259,170.736 166.111 C 169.895 168.963,168.999 171.963,168.747 172.778 C 168.359 174.028,167.655 174.742,164.244 177.344 L 160.201 180.429 159.567 183.085 C 158.305 188.366,155.093 204.105,155.245 204.258 C 155.523 204.535,167.918 206.322,168.368 206.149 C 168.607 206.057,169.266 204.761,169.832 203.269 C 170.398 201.777,171.982 198.222,173.353 195.370 C 174.723 192.519,176.386 188.935,177.048 187.407 C 177.710 185.880,178.994 183.046,179.902 181.111 C 180.809 179.176,181.876 176.776,182.274 175.777 C 183.727 172.127,187.360 166.765,189.571 165.006 C 192.130 162.970,192.073 162.972,192.365 164.907 C 192.918 168.564,194.611 175.146,194.888 174.716 C 195.049 174.465,195.869 172.509,196.709 170.370 C 198.293 166.334,199.599 163.538,199.795 163.760 C 199.969 163.957,202.982 171.584,206.066 179.630 C 207.588 183.602,209.697 188.935,210.753 191.481 C 211.810 194.028,212.967 196.944,213.326 197.963 C 215.105 203.013,217.508 208.148,218.093 208.149 C 218.429 208.150,220.680 207.784,223.096 207.336 L 227.488 206.522 227.265 205.020 C 227.062 203.653,225.809 196.549,224.255 187.963 C 223.616 184.428,223.626 184.260,224.817 179.074 C 225.238 177.241,226.313 172.324,227.207 168.148 C 228.100 163.972,229.006 160.099,229.220 159.540 C 229.673 158.358,229.412 157.407,228.635 157.407 C 228.336 157.407,225.783 156.741,222.963 155.926 C 220.143 155.111,217.741 154.444,217.625 154.444 C 217.509 154.444,216.013 157.236,214.300 160.648 C 210.655 167.909,209.524 169.993,209.229 169.997 C 208.953 170.001,201.987 159.317,200.894 157.212 L 200.312 156.090 204.274 149.804 C 206.453 146.347,208.883 142.575,209.674 141.423 C 211.474 138.797,211.466 138.544,209.537 137.170 C 208.671 136.553,206.188 134.771,204.018 133.209 C 199.289 129.806,200.623 129.714,195.114 133.826 M261.265 162.222 C 261.265 165.991,261.320 167.532,261.387 165.648 C 261.454 163.764,261.454 160.681,261.387 158.796 C 261.320 156.912,261.265 158.454,261.265 162.222 M138.624 159.444 C 138.627 160.463,138.699 160.836,138.784 160.273 C 138.869 159.710,138.867 158.876,138.779 158.421 C 138.691 157.965,138.622 158.426,138.624 159.444 M261.257 176.481 C 261.258 179.333,261.316 180.451,261.386 178.965 C 261.457 177.480,261.456 175.146,261.385 173.780 C 261.314 172.414,261.257 173.630,261.257 176.481 M197.369 182.484 C 196.270 185.276,195.318 187.683,195.254 187.834 C 195.189 187.984,195.994 188.159,197.042 188.221 L 198.947 188.333 200.877 193.148 L 202.807 197.963 204.976 198.076 C 207.978 198.232,207.975 198.295,205.328 191.667 C 204.026 188.407,202.260 183.866,201.404 181.574 C 200.548 179.282,199.739 177.407,199.607 177.407 C 199.475 177.407,198.468 179.692,197.369 182.484 M261.197 187.407 C 261.197 188.120,261.273 188.412,261.366 188.056 C 261.460 187.699,261.460 187.116,261.366 186.759 C 261.273 186.403,261.197 186.694,261.197 187.407 M180.652 219.521 C 181.113 219.610,181.780 219.606,182.134 219.514 C 182.488 219.421,182.111 219.349,181.296 219.353 C 180.481 219.357,180.192 219.433,180.652 219.521 M191.574 219.525 C 192.134 219.609,193.051 219.609,193.611 219.525 C 194.171 219.440,193.713 219.370,192.593 219.370 C 191.472 219.370,191.014 219.440,191.574 219.525 M184.352 264.342 C 185.014 264.424,186.097 264.424,186.759 264.342 C 187.421 264.260,186.880 264.193,185.556 264.193 C 184.231 264.193,183.690 264.260,184.352 264.342 M258.990 267.037 C 258.990 267.954,259.062 268.329,259.150 267.870 C 259.239 267.412,259.239 266.662,259.150 266.204 C 259.062 265.745,258.990 266.120,258.990 267.037 M189.722 267.663 C 190.079 267.756,190.662 267.756,191.019 267.663 C 191.375 267.570,191.083 267.493,190.370 267.493 C 189.657 267.493,189.366 267.570,189.722 267.663 M259.029 273.333 C 259.029 275.676,259.089 276.634,259.163 275.463 C 259.236 274.292,259.236 272.375,259.163 271.204 C 259.089 270.032,259.029 270.991,259.029 273.333 M232.357 273.889 C 232.358 275.926,232.421 276.712,232.496 275.636 C 232.571 274.559,232.570 272.893,232.494 271.932 C 232.418 270.971,232.357 271.852,232.357 273.889 M135.542 287.245 L 136.639 287.452 136.766 290.671 L 136.894 293.889 136.873 290.556 L 136.852 287.222 135.648 287.130 C 134.487 287.040,134.483 287.044,135.542 287.245 M220.043 287.870 C 220.074 288.468,220.133 288.525,220.252 288.074 C 220.374 287.608,220.917 287.409,222.338 287.309 L 224.259 287.174 222.130 287.106 C 220.136 287.041,220.003 287.090,220.043 287.870 M267.685 287.298 C 268.144 287.387,268.894 287.387,269.352 287.298 C 269.810 287.210,269.435 287.138,268.519 287.138 C 267.602 287.138,267.227 287.210,267.685 287.298 M186.816 291.481 C 186.849 292.336,186.996 292.410,188.704 292.445 L 190.556 292.483 188.819 292.333 C 187.383 292.209,187.056 292.043,186.931 291.370 C 186.807 290.697,186.787 290.716,186.816 291.481 M220.050 291.625 C 220.087 292.459,220.145 292.553,220.258 291.967 C 220.352 291.485,220.744 291.105,221.226 291.030 C 221.945 290.918,221.921 290.879,221.019 290.688 C 220.073 290.488,220.004 290.555,220.050 291.625 M236.044 292.593 C 236.044 293.917,236.112 294.458,236.194 293.796 C 236.276 293.134,236.276 292.051,236.194 291.389 C 236.112 290.727,236.044 291.269,236.044 292.593 M120.282 291.003 C 120.743 291.091,121.409 291.088,121.764 290.995 C 122.118 290.903,121.741 290.830,120.926 290.834 C 120.111 290.838,119.821 290.914,120.282 291.003 M277.685 291.009 C 278.347 291.091,279.431 291.091,280.093 291.009 C 280.755 290.927,280.213 290.859,278.889 290.859 C 277.565 290.859,277.023 290.927,277.685 291.009 M183.704 292.037 C 183.704 292.546,183.768 292.963,183.846 292.963 C 183.924 292.963,184.067 292.546,184.165 292.037 C 184.262 291.528,184.198 291.111,184.023 291.111 C 183.847 291.111,183.704 291.528,183.704 292.037 M191.495 291.667 C 191.497 291.870,191.839 292.454,192.255 292.963 C 192.758 293.578,192.884 293.640,192.630 293.148 C 192.006 291.940,191.493 291.270,191.495 291.667 M248.611 292.488 C 249.171 292.572,250.088 292.572,250.648 292.488 C 251.208 292.403,250.750 292.333,249.630 292.333 C 248.509 292.333,248.051 292.403,248.611 292.488 M160.655 292.861 C 161.320 292.943,162.320 292.942,162.877 292.857 C 163.434 292.773,162.889 292.705,161.667 292.707 C 160.444 292.709,159.989 292.779,160.655 292.861 " stroke="none" fill="#d4caef" fill-rule="evenodd"></path><path id="path1" d="M196.296 114.159 C 196.296 114.316,196.005 114.445,195.648 114.445 C 194.566 114.445,191.461 115.766,188.333 117.557 C 186.704 118.490,185.188 119.255,184.964 119.257 C 184.741 119.258,184.173 119.593,183.704 120.000 C 183.234 120.407,182.639 120.741,182.382 120.741 C 182.124 120.741,181.858 120.879,181.790 121.049 C 181.722 121.218,179.583 122.449,177.037 123.784 C 170.000 127.474,169.835 127.566,169.543 127.963 C 169.393 128.167,169.268 128.202,169.265 128.041 C 169.262 127.880,168.929 128.057,168.525 128.433 C 168.121 128.809,166.746 129.607,165.470 130.206 C 164.193 130.806,163.065 131.382,162.963 131.487 C 162.861 131.592,161.528 132.316,160.000 133.096 C 158.472 133.876,157.014 134.781,156.759 135.106 C 156.505 135.431,156.294 135.540,156.291 135.349 C 156.287 135.150,156.168 135.159,156.013 135.370 C 155.863 135.574,154.241 136.491,152.407 137.407 C 150.574 138.324,148.991 139.174,148.889 139.297 C 148.787 139.420,148.061 139.822,147.275 140.191 C 146.490 140.561,145.179 141.710,144.364 142.746 C 143.548 143.782,142.649 144.763,142.366 144.926 C 142.083 145.089,141.852 145.464,141.852 145.759 C 141.852 146.055,141.712 146.296,141.541 146.296 C 141.112 146.296,140.411 147.889,139.586 150.740 C 138.954 152.920,138.889 154.562,138.889 168.232 L 138.889 183.318 137.407 184.074 C 136.593 184.490,135.926 185.003,135.926 185.215 C 135.926 185.426,135.770 185.503,135.578 185.384 C 135.387 185.266,135.095 185.382,134.930 185.641 C 134.765 185.900,134.155 186.357,133.576 186.656 C 132.048 187.445,127.778 191.451,127.778 192.096 C 127.778 192.398,127.532 192.891,127.232 193.191 C 125.732 194.692,125.586 200.003,126.970 202.778 C 127.792 204.428,132.643 209.259,133.478 209.259 C 133.772 209.259,134.068 209.407,134.136 209.587 C 134.284 209.981,140.613 212.651,142.963 213.311 C 143.880 213.569,145.318 214.091,146.159 214.472 C 157.806 219.738,207.191 221.041,222.593 216.487 C 222.898 216.397,223.648 216.235,224.259 216.128 C 224.870 216.021,225.704 215.868,226.111 215.788 C 226.519 215.708,227.560 215.525,228.426 215.381 C 229.292 215.238,230.000 214.970,230.000 214.787 C 230.000 214.603,230.292 214.487,230.648 214.528 C 231.005 214.569,232.296 214.312,233.519 213.955 C 234.741 213.599,236.324 213.152,237.037 212.962 C 240.320 212.086,245.217 210.599,247.407 209.812 C 248.731 209.337,250.203 208.836,250.679 208.699 C 251.522 208.455,251.536 208.376,251.287 205.383 C 250.769 199.168,254.012 193.527,259.074 191.838 L 260.926 191.221 261.041 172.925 C 261.154 155.133,260.919 150.013,259.967 149.424 C 259.781 149.309,259.630 148.892,259.630 148.497 C 259.630 148.101,259.296 147.444,258.889 147.037 C 258.481 146.630,258.148 146.106,258.148 145.873 C 258.148 145.452,256.952 144.046,254.428 141.499 C 253.694 140.758,251.164 139.199,248.687 137.961 C 246.252 136.744,244.093 135.556,243.889 135.321 C 243.685 135.087,241.019 133.607,237.963 132.034 C 234.907 130.461,232.157 128.966,231.852 128.713 C 231.183 128.158,228.315 126.578,222.593 123.612 C 220.250 122.398,218.278 121.255,218.210 121.072 C 218.142 120.890,217.850 120.741,217.562 120.741 C 217.273 120.741,217.037 120.609,217.037 120.448 C 217.037 120.286,216.495 119.901,215.833 119.592 C 215.171 119.282,213.011 118.174,211.032 117.129 C 209.054 116.085,206.512 115.015,205.384 114.753 C 204.256 114.491,203.333 114.167,203.333 114.035 C 203.333 113.902,201.750 113.811,199.815 113.833 C 197.880 113.855,196.296 114.002,196.296 114.159 M202.963 132.050 C 204.491 133.166,207.020 134.999,208.583 136.124 C 211.360 138.123,211.452 138.240,212.577 141.215 C 213.211 142.889,214.597 146.453,215.658 149.134 L 217.586 154.008 223.515 155.768 C 226.776 156.736,229.500 157.570,229.567 157.621 C 229.706 157.727,234.997 172.623,237.334 179.488 L 238.862 183.975 238.968 194.278 L 239.074 204.580 228.704 206.539 C 223.000 207.616,218.075 208.502,217.759 208.508 C 217.355 208.515,216.278 206.247,214.115 200.833 C 206.428 181.592,204.969 177.889,202.405 171.117 C 200.375 165.756,199.603 164.090,199.401 164.636 C 199.251 165.040,197.973 168.204,196.560 171.667 C 193.412 179.381,187.062 195.350,183.085 205.556 C 182.569 206.880,182.034 208.084,181.896 208.233 C 181.470 208.691,154.815 204.726,154.815 204.205 C 154.815 203.954,155.552 200.364,156.453 196.226 C 157.355 192.089,158.474 186.814,158.942 184.505 L 159.792 180.307 163.905 177.202 L 168.018 174.098 171.074 163.993 C 175.954 147.863,175.361 149.338,177.158 148.873 C 178.008 148.653,180.041 148.073,181.675 147.584 L 184.646 146.694 185.955 143.090 L 187.263 139.486 190.761 136.770 C 194.893 133.562,199.738 130.024,200.000 130.023 C 200.102 130.023,201.435 130.935,202.963 132.050 M200.104 177.315 C 200.208 177.671,201.886 182.067,203.832 187.083 C 205.778 192.099,207.482 196.649,207.618 197.193 L 207.867 198.182 205.180 198.073 L 202.494 197.963 200.661 193.241 L 198.828 188.519 197.068 188.519 C 194.461 188.519,194.476 188.395,198.073 179.916 C 199.488 176.580,199.779 176.208,200.104 177.315 M138.723 206.215 C 138.455 206.483,133.645 203.539,132.703 202.530 C 130.724 200.411,130.265 197.581,131.575 195.585 C 132.033 194.889,132.587 194.018,132.807 193.651 C 133.027 193.283,133.860 192.480,134.659 191.866 C 135.458 191.252,136.278 190.620,136.481 190.463 C 136.685 190.305,137.269 189.994,137.778 189.772 L 138.704 189.369 138.803 197.702 C 138.858 202.285,138.822 206.116,138.723 206.215 M259.444 194.247 C 256.791 195.620,255.692 196.285,256.068 196.291 C 256.249 196.294,255.973 196.629,255.455 197.036 C 253.403 198.650,252.678 204.194,254.048 207.798 L 254.762 209.678 253.214 210.339 C 252.363 210.702,251.000 211.205,250.185 211.457 C 249.370 211.709,248.185 212.148,247.552 212.432 C 246.918 212.716,245.543 213.132,244.496 213.357 C 243.449 213.581,242.593 213.918,242.593 214.105 C 242.593 214.292,242.346 214.444,242.045 214.444 C 241.743 214.444,239.785 214.924,237.693 215.511 C 232.056 217.091,217.214 220.000,214.790 220.000 C 214.193 220.000,213.702 220.125,213.700 220.278 C 213.698 220.431,212.342 220.588,210.686 220.628 C 209.030 220.668,207.406 220.817,207.078 220.959 C 206.750 221.101,205.815 221.264,205.000 221.322 C 204.185 221.380,201.602 221.594,199.259 221.799 C 193.734 222.281,181.032 222.279,175.370 221.795 C 172.926 221.586,170.343 221.383,169.630 221.344 C 168.917 221.305,168.167 221.175,167.963 221.055 C 167.759 220.935,166.343 220.723,164.815 220.584 C 160.566 220.197,155.461 219.295,150.556 218.063 C 144.520 216.548,143.704 216.442,143.704 217.169 C 143.704 218.654,147.751 221.935,152.519 224.317 C 153.680 224.896,154.713 225.464,154.815 225.578 C 154.917 225.692,156.249 226.414,157.775 227.182 C 159.301 227.951,160.634 228.700,160.738 228.847 C 160.841 228.995,161.593 229.448,162.407 229.854 C 167.242 232.263,173.536 235.690,173.643 235.972 C 173.711 236.153,173.919 236.207,174.106 236.092 C 174.292 235.976,174.444 236.058,174.444 236.272 C 174.444 236.486,175.403 237.133,176.574 237.708 C 181.054 239.908,185.930 242.542,186.820 243.242 C 187.330 243.643,188.296 244.194,188.966 244.465 C 189.637 244.736,190.283 245.100,190.402 245.273 C 191.744 247.219,201.801 248.266,205.926 246.888 C 208.168 246.139,213.209 243.504,213.399 242.981 C 213.465 242.800,214.769 242.061,216.296 241.340 C 220.611 239.303,225.287 236.730,225.616 236.211 C 225.780 235.952,225.920 235.907,225.926 236.111 C 225.932 236.315,226.063 236.283,226.217 236.041 C 226.371 235.799,227.577 235.097,228.897 234.481 C 231.991 233.037,236.648 230.535,237.575 229.819 C 237.973 229.511,238.515 229.259,238.779 229.259 C 239.043 229.259,239.259 229.124,239.259 228.958 C 239.259 228.792,242.036 227.250,245.429 225.532 C 252.200 222.102,256.556 218.594,258.526 214.984 C 259.292 213.580,259.583 213.335,260.278 213.509 C 262.246 214.002,264.362 214.111,265.751 213.792 C 267.249 213.448,268.519 214.247,268.519 215.533 C 268.519 215.749,268.685 215.926,268.889 215.926 C 269.093 215.926,269.259 216.152,269.259 216.427 C 269.259 216.703,269.668 217.370,270.168 217.909 C 270.667 218.448,270.959 218.889,270.816 218.889 C 270.673 218.890,271.045 219.311,271.644 219.826 C 275.256 222.932,278.785 219.191,275.943 215.268 C 275.323 214.411,274.815 213.560,274.815 213.376 C 274.815 213.192,274.565 212.946,274.259 212.829 C 273.954 212.712,273.704 212.428,273.704 212.198 C 273.704 211.969,273.355 211.291,272.928 210.692 C 272.393 209.940,272.267 209.465,272.520 209.154 C 273.131 208.406,274.074 204.779,274.076 203.174 C 274.084 196.203,265.633 191.047,259.444 194.247 M266.222 198.675 C 270.992 201.185,269.130 209.249,263.778 209.257 C 260.456 209.262,258.518 207.213,258.525 203.704 C 258.534 199.308,262.501 196.716,266.222 198.675 M257.870 203.527 C 257.968 204.041,257.904 204.551,257.728 204.660 C 257.552 204.769,257.407 204.349,257.407 203.726 C 257.407 202.351,257.627 202.256,257.870 203.527 M211.294 263.648 C 209.897 264.101,206.288 266.354,206.476 266.657 C 206.578 266.823,206.424 267.051,206.132 267.163 C 204.847 267.656,204.417 272.389,205.463 274.524 C 206.469 276.577,209.548 278.958,210.525 278.438 C 211.227 278.064,211.249 278.084,210.770 278.665 C 210.281 279.258,210.405 279.297,212.529 279.220 C 214.647 279.144,215.452 278.793,214.352 278.426 C 214.097 278.341,214.437 278.272,215.107 278.272 C 217.493 278.272,219.195 276.176,217.938 274.787 C 217.120 273.883,216.397 273.890,215.000 274.815 C 211.338 277.240,207.372 273.266,209.448 269.252 C 210.496 267.225,212.754 266.826,215.246 268.227 C 217.189 269.319,219.322 268.033,218.295 266.389 C 217.651 265.356,215.062 263.693,214.352 263.856 C 213.995 263.938,213.704 263.854,213.704 263.669 C 213.704 263.293,212.424 263.282,211.294 263.648 M279.259 263.669 C 279.259 263.854,278.926 263.918,278.519 263.811 C 278.104 263.703,277.778 263.800,277.778 264.031 C 277.778 264.258,277.440 264.444,277.027 264.444 C 274.571 264.444,271.799 269.808,272.565 273.079 C 273.189 275.745,276.864 279.698,277.604 278.500 C 277.724 278.306,278.020 278.161,278.263 278.177 C 278.581 278.198,278.575 278.259,278.241 278.393 C 277.076 278.863,277.970 279.291,279.966 279.219 C 281.792 279.153,282.117 279.043,281.933 278.552 C 281.743 278.042,281.797 278.031,282.338 278.471 C 282.914 278.940,283.131 278.794,282.998 278.028 C 282.968 277.860,283.125 277.834,283.346 277.971 C 283.567 278.107,284.383 277.778,285.161 277.239 L 286.574 276.260 286.570 273.324 C 286.568 271.710,286.440 270.467,286.285 270.563 C 286.130 270.658,285.908 270.487,285.791 270.183 C 285.674 269.879,285.199 269.649,284.734 269.673 C 284.099 269.705,284.051 269.758,284.542 269.886 C 284.901 269.979,285.099 270.210,284.983 270.398 C 284.695 270.864,280.865 270.833,279.976 270.357 C 279.343 270.019,279.259 270.101,279.259 271.068 C 279.259 272.944,279.585 273.333,281.151 273.333 C 282.664 273.333,283.175 274.254,282.130 275.098 C 281.524 275.588,278.511 275.867,278.796 275.407 C 278.921 275.205,278.719 275.171,278.313 275.327 C 277.929 275.474,277.717 275.492,277.842 275.367 C 277.967 275.243,277.671 274.741,277.183 274.254 C 276.694 273.765,276.285 272.902,276.270 272.332 C 276.247 271.419,276.206 271.384,275.926 272.037 C 275.646 272.689,275.604 272.653,275.582 271.737 C 275.566 271.133,275.711 270.793,275.926 270.926 C 276.130 271.052,276.296 270.799,276.296 270.364 C 276.296 267.936,280.551 266.463,282.694 268.148 C 283.923 269.115,284.113 269.090,285.348 267.801 L 286.391 266.713 285.325 265.773 C 284.739 265.257,283.968 264.735,283.611 264.614 C 283.255 264.493,282.963 264.236,282.963 264.042 C 282.963 263.848,282.546 263.765,282.037 263.857 C 281.528 263.949,281.111 263.869,281.111 263.679 C 281.111 263.489,280.694 263.333,280.185 263.333 C 279.676 263.333,279.259 263.484,279.259 263.669 M114.817 265.260 C 114.325 266.136,113.927 266.935,113.932 267.037 C 113.937 267.139,113.722 267.442,113.452 267.712 C 113.183 267.981,112.963 268.441,112.963 268.735 C 112.963 269.029,112.805 269.559,112.611 269.912 C 112.079 270.887,109.259 277.558,109.259 277.844 C 109.259 279.665,112.726 279.064,113.363 277.133 L 113.761 275.926 116.613 275.926 C 119.321 275.926,121.275 276.749,120.472 277.552 C 120.064 277.961,121.116 278.764,121.939 278.673 C 122.400 278.622,123.153 278.566,123.611 278.549 C 124.474 278.517,124.800 277.219,124.135 276.463 C 123.965 276.269,123.535 275.319,123.179 274.352 C 122.823 273.384,122.384 272.593,122.203 272.593 C 122.023 272.593,121.959 272.375,122.061 272.108 C 122.163 271.841,121.908 271.233,121.494 270.755 C 121.080 270.277,120.732 269.620,120.721 269.295 C 120.583 265.089,116.487 262.289,114.817 265.260 M125.833 264.405 C 125.265 264.981,125.185 265.871,125.185 271.597 L 125.185 278.131 126.113 278.739 C 126.861 279.229,127.148 279.258,127.594 278.887 C 127.899 278.635,128.148 278.543,128.148 278.685 C 128.148 278.826,128.415 278.675,128.740 278.350 C 129.156 277.934,129.293 277.263,129.200 276.101 L 129.069 274.444 131.294 274.443 C 135.804 274.440,138.179 271.496,137.024 267.338 C 136.221 264.447,127.934 262.275,125.833 264.405 M142.028 264.576 C 141.247 265.404,140.810 266.338,137.969 273.250 C 135.990 278.063,136.010 278.704,138.140 278.704 C 139.508 278.704,139.666 278.596,140.179 277.315 L 140.735 275.926 143.645 275.926 L 146.554 275.926 147.120 277.366 C 147.638 278.684,147.793 278.798,148.936 278.703 C 149.623 278.646,150.477 278.581,150.833 278.559 C 151.636 278.509,151.690 277.300,150.917 276.659 C 150.606 276.402,150.425 276.118,150.514 276.030 C 150.602 275.941,150.189 274.891,149.597 273.696 C 149.004 272.501,148.519 271.345,148.519 271.127 C 148.519 270.909,148.356 270.441,148.158 270.088 C 147.960 269.734,147.304 268.319,146.700 266.944 C 146.096 265.569,145.415 264.444,145.187 264.444 C 144.958 264.444,144.874 264.278,145.000 264.074 C 145.463 263.325,142.781 263.778,142.028 264.576 M157.037 264.085 C 157.037 264.250,156.533 264.496,155.917 264.632 C 150.977 265.716,149.821 275.098,154.339 277.431 C 154.906 277.723,155.592 278.173,155.863 278.429 C 156.134 278.686,156.509 278.801,156.697 278.685 C 156.884 278.570,157.037 278.651,157.037 278.867 C 157.037 280.366,162.359 278.851,164.384 276.775 C 166.179 274.936,164.022 273.573,161.287 274.819 C 157.800 276.407,155.185 274.956,155.185 271.432 C 155.185 267.896,158.058 266.407,161.460 268.180 L 162.943 268.953 164.064 268.155 C 165.466 267.157,165.461 266.965,164.002 265.737 C 162.162 264.189,157.037 262.973,157.037 264.085 M166.909 264.381 C 166.259 265.099,165.966 277.499,166.580 278.333 C 166.729 278.537,167.435 278.704,168.148 278.704 C 169.835 278.704,169.988 278.437,169.994 275.481 L 170.000 272.998 171.389 273.145 C 172.153 273.225,173.312 273.300,173.965 273.312 L 175.151 273.333 175.261 275.821 C 175.397 278.914,176.498 279.960,178.263 278.673 L 179.236 277.963 179.248 271.589 C 179.259 265.500,179.223 265.180,178.449 264.459 C 176.603 262.740,175.185 263.993,175.185 267.344 L 175.185 269.630 172.593 269.630 L 170.000 269.630 170.000 267.623 C 170.000 265.276,169.748 264.444,169.034 264.444 C 168.751 264.444,168.519 264.278,168.519 264.074 C 168.519 263.471,167.569 263.652,166.909 264.381 M200.229 264.396 C 199.296 265.427,199.422 277.425,200.378 278.527 C 201.043 279.294,202.222 279.525,202.222 278.889 C 202.222 278.685,202.472 278.519,202.778 278.519 C 203.764 278.519,203.586 265.195,202.588 264.342 C 201.630 263.521,201.008 263.535,200.229 264.396 M220.206 264.527 C 219.272 265.860,219.390 277.276,220.349 278.426 C 221.278 279.539,229.861 279.715,230.934 278.643 C 232.845 276.732,231.072 275.198,226.944 275.191 C 223.736 275.185,223.704 275.176,223.704 274.259 C 223.704 273.341,223.731 273.333,226.997 273.333 C 230.624 273.333,230.741 273.257,230.741 270.896 L 230.741 269.630 227.222 269.630 L 223.704 269.630 223.704 268.519 L 223.704 267.407 227.407 267.407 L 231.111 267.407 231.108 266.019 C 231.104 264.066,230.140 263.704,224.947 263.704 C 221.064 263.704,220.744 263.759,220.206 264.527 M233.433 264.251 C 232.219 264.784,232.182 265.074,232.456 272.089 L 232.707 278.519 234.817 278.519 C 235.977 278.519,237.455 278.703,238.101 278.928 C 238.961 279.228,239.408 279.227,239.773 278.923 C 240.047 278.696,240.669 278.553,241.154 278.607 C 241.687 278.665,242.002 278.526,241.949 278.254 C 241.899 278.001,242.093 277.893,242.393 278.009 C 244.030 278.637,245.924 274.495,244.603 273.175 C 244.283 272.854,244.142 272.593,244.290 272.593 C 244.438 272.593,244.258 272.259,243.889 271.852 C 243.264 271.161,243.260 271.065,243.831 270.434 C 244.500 269.695,244.695 266.667,244.074 266.667 C 243.870 266.667,243.745 266.458,243.796 266.204 C 244.117 264.603,236.082 263.089,233.433 264.251 M246.909 264.381 C 246.174 265.193,245.973 277.904,246.688 278.346 C 247.810 279.040,256.445 279.534,257.155 278.945 C 257.624 278.556,257.693 276.316,257.257 275.612 C 257.089 275.339,255.748 275.185,253.548 275.185 L 250.103 275.185 250.280 274.259 C 250.451 273.366,250.558 273.333,253.350 273.333 C 256.442 273.333,257.407 272.880,257.407 271.429 C 257.407 270.018,256.534 269.630,253.360 269.630 L 250.370 269.630 250.370 268.519 L 250.370 267.407 253.611 267.402 C 257.540 267.395,258.996 266.070,257.165 264.167 C 256.382 263.353,247.675 263.535,246.909 264.381 M259.981 264.178 C 259.101 264.869,258.952 278.519,259.824 278.519 C 260.149 278.519,260.311 278.685,260.185 278.889 C 260.059 279.093,260.299 279.259,260.719 279.259 C 261.138 279.259,261.481 279.093,261.481 278.889 C 261.481 278.685,261.731 278.519,262.037 278.519 C 262.469 278.519,262.593 278.025,262.593 276.296 C 262.593 272.981,264.075 273.018,266.347 276.389 C 268.205 279.145,268.390 279.295,269.777 279.171 C 271.683 278.999,271.799 278.098,270.221 275.721 L 268.816 273.605 269.768 272.821 C 272.494 270.577,270.897 264.444,267.587 264.444 C 267.081 264.444,266.667 264.278,266.667 264.074 C 266.667 263.532,260.685 263.625,259.981 264.178 M181.840 264.525 C 181.016 264.826,180.680 277.838,181.483 278.334 C 181.687 278.461,183.706 278.632,185.969 278.715 C 188.232 278.798,190.398 278.965,190.782 279.087 C 191.185 279.215,191.481 279.132,191.481 278.892 C 191.481 278.663,191.648 278.578,191.852 278.704 C 192.078 278.843,192.222 278.289,192.222 277.284 C 192.222 275.270,192.050 275.185,187.933 275.185 L 184.815 275.185 184.814 274.167 L 184.814 273.148 188.240 273.148 C 191.556 273.148,191.671 273.120,191.790 272.277 C 192.127 269.893,191.764 269.630,188.141 269.630 L 184.815 269.630 184.815 268.519 L 184.815 267.407 188.519 267.407 L 192.222 267.407 192.222 265.926 C 192.222 265.008,192.046 264.430,191.759 264.405 C 189.640 264.227,182.418 264.314,181.840 264.525 M267.270 268.336 C 267.908 269.208,267.770 269.696,266.740 270.214 C 266.256 270.458,266.080 270.747,266.288 270.955 C 266.497 271.163,265.807 271.296,264.519 271.296 L 262.407 271.296 262.407 269.254 L 262.407 267.213 264.580 267.420 C 266.124 267.568,266.902 267.833,267.270 268.336 M132.889 267.852 C 133.422 268.385,133.462 269.968,132.963 270.741 C 132.765 271.046,132.599 271.130,132.593 270.926 C 132.586 270.709,132.469 270.723,132.309 270.961 C 132.156 271.190,131.431 271.293,130.648 271.198 L 129.259 271.030 129.259 269.219 L 129.259 267.407 130.852 267.407 C 131.728 267.407,132.644 267.607,132.889 267.852 M240.301 268.240 C 240.508 269.329,239.596 269.832,237.778 269.630 C 236.249 269.460,236.110 269.359,236.095 268.410 C 236.075 267.119,240.057 266.958,240.301 268.240 M144.595 270.622 C 144.920 271.574,145.185 272.408,145.185 272.473 C 145.185 272.539,144.519 272.593,143.704 272.593 C 142.046 272.593,141.855 272.170,142.864 270.731 C 143.216 270.227,143.466 269.773,143.419 269.722 C 143.194 269.480,143.371 268.889,143.669 268.889 C 143.853 268.889,144.270 269.669,144.595 270.622 M117.588 270.601 C 118.365 272.462,118.318 272.593,116.870 272.593 L 115.591 272.593 116.209 270.926 C 116.951 268.923,116.892 268.937,117.588 270.601 M240.554 273.324 C 240.862 274.729,240.574 275.176,239.330 275.222 L 238.333 275.259 239.259 275.556 C 240.019 275.799,239.885 275.854,238.519 275.863 C 237.268 275.871,237.037 275.794,237.593 275.556 C 238.249 275.273,238.217 275.234,237.315 275.211 C 236.755 275.197,236.296 275.352,236.296 275.556 C 236.296 275.759,236.096 275.926,235.852 275.926 C 235.506 275.926,235.506 275.827,235.852 275.481 C 236.096 275.237,236.296 274.574,236.296 274.007 C 236.296 272.956,236.477 272.849,238.889 272.469 C 239.398 272.389,239.927 272.300,240.063 272.273 C 240.200 272.245,240.420 272.718,240.554 273.324 M254.444 272.593 C 254.831 272.843,254.185 272.953,252.315 272.957 C 250.768 272.961,249.630 272.806,249.630 272.593 C 249.630 272.118,253.709 272.118,254.444 272.593 M255.741 275.676 C 256.352 275.733,255.228 275.854,253.244 275.945 C 251.024 276.047,249.581 275.969,249.494 275.741 C 249.364 275.403,252.459 275.371,255.741 275.676 M228.252 275.826 C 227.392 275.904,225.892 275.905,224.919 275.828 C 223.945 275.752,224.648 275.688,226.481 275.687 C 228.315 275.686,229.112 275.749,228.252 275.826 M253.426 278.410 C 252.968 278.498,252.218 278.498,251.759 278.410 C 251.301 278.321,251.676 278.249,252.593 278.249 C 253.509 278.249,253.884 278.321,253.426 278.410 " stroke="none" fill="#3d2c70" fill-rule="evenodd"></path><path id="path2" d="M209.537 141.609 C 204.567 149.159,200.504 155.871,200.582 156.402 C 200.630 156.732,201.478 158.271,202.465 159.822 C 204.571 163.133,208.594 169.392,208.727 169.564 C 208.920 169.815,210.370 168.330,210.370 167.881 C 210.370 167.620,210.508 167.407,210.675 167.407 C 210.947 167.407,212.380 164.522,213.756 161.204 C 214.030 160.542,214.381 160.000,214.535 160.000 C 214.689 160.000,214.815 159.667,214.815 159.259 C 214.815 158.852,214.991 158.519,215.207 158.519 C 215.423 158.519,215.496 158.352,215.370 158.148 C 215.244 157.944,215.346 157.778,215.595 157.778 C 215.845 157.778,215.946 157.675,215.820 157.549 C 215.694 157.422,215.834 157.076,216.132 156.778 C 216.430 156.480,216.579 156.083,216.463 155.896 C 216.347 155.709,216.411 155.556,216.605 155.556 C 217.708 155.556,216.001 150.102,211.777 140.128 L 211.282 138.959 209.537 141.609 M229.122 159.722 C 228.999 160.181,228.897 161.004,228.894 161.552 C 228.891 162.100,228.722 162.652,228.519 162.778 C 228.315 162.904,228.148 163.747,228.148 164.651 C 228.148 165.556,227.981 166.296,227.778 166.296 C 227.574 166.296,227.407 166.686,227.407 167.163 C 227.407 167.640,227.067 169.348,226.651 170.959 C 226.234 172.571,225.865 174.514,225.831 175.278 C 225.797 176.042,225.661 176.667,225.530 176.667 C 225.327 176.667,224.476 180.252,223.850 183.735 C 223.756 184.262,223.944 186.178,224.268 187.994 C 224.593 189.810,225.360 194.130,225.974 197.593 C 226.588 201.056,227.203 204.475,227.341 205.191 L 227.593 206.493 233.268 205.405 L 238.944 204.316 238.726 194.102 C 238.508 183.857,237.673 178.400,236.239 177.839 C 236.064 177.770,236.007 177.577,236.111 177.408 C 236.215 177.239,234.979 173.462,233.364 169.014 C 231.749 164.565,230.313 160.468,230.174 159.907 C 229.866 158.673,229.424 158.595,229.122 159.722 M191.198 164.008 C 190.737 164.073,190.455 164.282,190.572 164.471 C 190.689 164.660,190.582 164.815,190.335 164.815 C 188.857 164.815,182.910 172.720,183.577 173.798 C 183.718 174.027,183.641 174.079,183.391 173.924 C 183.155 173.779,182.951 173.795,182.937 173.960 C 182.798 175.596,182.560 176.492,182.236 176.600 C 182.022 176.672,181.941 176.882,182.057 177.069 C 182.172 177.255,182.101 177.407,181.899 177.407 C 181.530 177.407,180.900 178.831,181.038 179.352 C 181.078 179.505,180.944 179.630,180.741 179.630 C 180.537 179.630,180.370 179.953,180.370 180.349 C 180.370 180.744,180.204 181.170,180.000 181.296 C 179.796 181.422,179.630 181.777,179.630 182.085 C 179.630 182.393,179.378 182.897,179.071 183.204 C 178.763 183.512,178.606 183.917,178.722 184.104 C 178.838 184.291,178.756 184.444,178.540 184.444 C 178.325 184.444,178.148 184.768,178.148 185.163 C 178.148 185.559,177.981 185.985,177.778 186.111 C 177.574 186.237,177.407 186.664,177.407 187.059 C 177.407 187.454,177.241 187.778,177.037 187.778 C 176.833 187.778,176.667 188.181,176.667 188.673 C 176.667 189.165,176.525 189.623,176.351 189.691 C 175.859 189.884,171.852 198.389,171.852 199.240 C 171.852 199.658,171.685 200.000,171.481 200.000 C 171.278 200.000,171.111 200.500,171.111 201.111 C 171.111 201.871,170.928 202.222,170.534 202.222 C 170.204 202.222,170.066 202.399,170.211 202.634 C 170.351 202.860,170.319 203.152,170.140 203.282 C 169.961 203.412,169.531 204.132,169.185 204.882 L 168.555 206.245 169.555 206.455 C 170.904 206.738,180.657 208.148,181.264 208.148 C 181.530 208.148,182.086 207.273,182.501 206.204 C 185.887 197.472,189.629 188.026,191.853 182.593 C 194.389 176.399,194.846 174.654,194.206 173.617 C 194.047 173.360,193.880 172.666,193.835 172.075 C 193.790 171.484,193.554 170.877,193.311 170.727 C 193.067 170.576,192.969 170.291,193.091 170.092 C 193.267 169.808,192.472 164.894,192.117 164.074 C 192.073 163.972,191.660 163.942,191.198 164.008 M207.407 284.493 C 207.407 284.670,207.782 284.834,208.241 284.858 C 208.895 284.892,208.931 284.938,208.408 285.074 C 208.042 285.169,207.542 285.080,207.297 284.877 C 206.616 284.312,204.691 285.280,203.684 286.695 C 201.851 289.269,203.086 294.429,205.396 293.849 C 205.944 293.712,206.296 293.784,206.296 294.034 C 206.296 294.260,206.019 294.444,205.679 294.444 C 204.155 294.444,205.813 294.999,207.527 295.063 C 210.293 295.165,212.283 294.260,211.977 293.040 C 211.814 292.393,211.872 292.191,212.168 292.374 C 212.464 292.557,212.581 292.152,212.556 291.040 C 212.523 289.649,212.477 289.563,212.194 290.370 C 211.897 291.218,211.879 291.195,211.981 290.102 C 212.111 288.698,212.049 288.665,209.632 288.832 C 208.010 288.944,207.781 289.060,207.804 289.758 C 207.829 290.532,207.839 290.534,208.148 289.815 C 208.323 289.407,208.478 289.282,208.492 289.537 C 208.507 289.792,208.877 290.358,209.315 290.796 C 209.914 291.395,210.019 291.740,209.737 292.185 C 209.316 292.854,207.040 293.072,207.031 292.444 C 207.028 292.218,206.885 292.259,206.709 292.537 C 206.472 292.911,206.265 292.751,205.891 291.908 C 205.616 291.286,205.288 290.945,205.162 291.149 C 205.036 291.353,204.921 290.733,204.906 289.772 C 204.889 288.606,204.990 288.199,205.212 288.549 C 205.470 288.957,205.545 288.965,205.550 288.585 C 205.565 287.289,207.581 286.572,209.498 287.181 C 210.651 287.546,211.440 285.387,210.364 284.811 C 209.420 284.306,207.407 284.089,207.407 284.493 M257.688 284.287 C 257.571 284.404,257.168 284.551,256.793 284.614 C 256.418 284.677,256.154 284.919,256.207 285.153 C 256.260 285.386,255.635 286.233,254.818 287.033 C 254.002 287.834,253.333 288.319,253.333 288.112 C 253.333 287.904,253.167 287.837,252.963 287.963 C 252.759 288.089,252.593 288.857,252.593 289.670 C 252.593 294.573,258.181 297.082,261.638 293.731 C 262.798 292.607,263.745 290.813,262.904 291.333 C 262.680 291.471,262.586 290.683,262.657 289.263 C 262.806 286.253,261.311 284.591,258.763 284.933 C 257.828 285.058,257.459 285.012,257.786 284.810 C 258.075 284.631,258.219 284.392,258.107 284.279 C 257.994 284.166,257.805 284.170,257.688 284.287 M108.123 284.731 C 107.665 284.820,107.563 285.642,107.550 289.375 L 107.533 293.911 108.745 293.769 C 109.734 293.654,109.979 293.448,110.072 292.656 C 110.169 291.827,110.375 291.678,111.481 291.633 C 112.194 291.604,112.587 291.650,112.354 291.734 C 111.668 291.982,112.222 293.267,113.470 294.321 L 114.630 295.300 114.747 294.317 C 114.811 293.776,115.031 293.333,115.235 293.333 C 115.439 293.333,115.249 292.833,114.814 292.221 C 114.159 291.301,114.115 291.072,114.562 290.900 C 114.884 290.777,115.027 290.402,114.916 289.976 C 114.809 289.567,114.916 289.259,115.164 289.259 C 115.403 289.259,115.483 289.448,115.341 289.678 C 115.184 289.932,115.284 290.029,115.597 289.925 C 116.589 289.594,116.268 286.671,115.238 286.661 C 114.710 286.656,114.703 286.608,115.185 286.296 C 115.556 286.057,115.586 285.935,115.278 285.932 C 114.463 285.922,114.268 285.826,113.826 285.222 C 113.425 284.673,109.969 284.376,108.123 284.731 M117.778 284.869 C 117.778 285.009,117.986 285.221,118.241 285.340 C 118.611 285.512,118.611 285.599,118.241 285.772 C 117.986 285.890,117.761 286.682,117.741 287.531 C 117.709 288.853,117.661 288.941,117.407 288.148 C 117.162 287.383,117.114 287.493,117.134 288.781 C 117.147 289.638,117.297 290.253,117.468 290.148 C 117.638 290.043,117.778 290.893,117.778 292.037 C 117.778 293.330,117.638 294.031,117.407 293.889 C 116.975 293.622,116.928 294.070,117.323 294.691 C 117.545 295.040,122.861 295.155,124.907 294.856 C 125.350 294.791,125.229 293.033,124.761 292.745 C 124.528 292.600,123.486 292.441,122.446 292.390 C 121.406 292.339,120.347 292.280,120.093 292.259 C 119.838 292.239,119.630 291.888,119.630 291.479 C 119.630 290.809,119.847 290.744,121.845 290.819 C 124.272 290.911,125.024 290.501,124.641 289.297 C 124.424 288.612,124.107 288.519,122.012 288.519 C 119.929 288.519,119.630 288.431,119.630 287.823 C 119.630 287.241,119.917 287.127,121.389 287.123 C 124.933 287.113,125.088 287.080,124.323 286.500 C 123.810 286.111,123.733 285.822,124.008 285.308 C 124.347 284.674,124.154 284.629,121.074 284.622 C 119.261 284.618,117.778 284.729,117.778 284.869 M128.148 284.805 C 128.148 285.014,127.902 285.185,127.601 285.185 C 126.858 285.185,125.993 286.631,126.007 287.850 C 126.023 289.205,127.240 290.474,128.224 290.161 C 128.688 290.014,128.893 290.064,128.753 290.291 C 128.515 290.676,130.196 291.263,130.679 290.964 C 130.830 290.871,130.988 291.210,131.030 291.718 C 131.095 292.502,130.989 292.604,130.322 292.392 C 129.819 292.232,129.623 292.282,129.776 292.529 C 130.062 292.993,127.946 292.453,127.266 291.889 C 126.993 291.661,126.622 291.653,126.284 291.867 C 125.985 292.056,125.886 292.213,126.064 292.217 C 126.242 292.220,126.176 292.476,125.918 292.787 C 125.661 293.097,125.557 293.458,125.688 293.589 C 125.819 293.720,125.926 293.652,125.926 293.438 C 125.926 293.224,126.301 292.955,126.759 292.839 C 127.517 292.648,127.534 292.673,126.944 293.115 C 126.003 293.820,126.149 294.119,127.315 293.873 C 128.207 293.684,128.248 293.711,127.641 294.094 C 126.116 295.056,130.036 295.659,131.999 294.765 C 133.218 294.209,133.695 290.741,132.552 290.741 C 132.371 290.741,132.222 290.554,132.222 290.325 C 132.222 289.550,133.331 290.794,133.376 291.619 C 133.412 292.272,133.449 292.293,133.592 291.741 C 133.831 290.822,132.679 289.147,131.990 289.411 C 131.689 289.527,131.532 289.477,131.641 289.301 C 131.749 289.125,131.085 288.771,130.165 288.513 C 128.246 287.976,128.170 287.222,130.035 287.222 C 131.712 287.222,133.420 284.988,131.898 284.784 C 129.675 284.485,128.148 284.494,128.148 284.805 M136.667 284.804 C 135.392 284.954,135.023 285.142,135.099 285.606 C 135.154 285.939,134.904 286.345,134.544 286.507 C 134.046 286.731,134.243 286.852,135.370 287.012 L 136.852 287.222 136.961 290.168 C 137.022 291.788,137.226 293.300,137.416 293.528 C 137.631 293.787,137.615 294.089,137.374 294.330 C 137.105 294.598,137.165 294.785,137.568 294.939 C 137.978 295.096,138.148 294.940,138.148 294.408 C 138.148 293.858,138.324 293.710,138.796 293.860 C 139.388 294.049,139.434 293.761,139.327 290.571 L 139.209 287.076 140.484 287.282 C 141.231 287.404,141.862 287.321,142.009 287.082 C 142.157 286.842,142.061 286.752,141.775 286.862 C 141.434 286.992,141.290 286.686,141.292 285.839 C 141.297 284.500,140.590 284.342,136.667 284.804 M150.037 284.976 C 149.375 285.334,149.280 285.515,149.666 285.685 C 149.977 285.821,149.889 285.874,149.444 285.816 C 147.373 285.546,146.345 290.584,147.971 293.041 C 148.871 294.401,149.402 294.742,149.723 294.167 C 149.809 294.014,149.828 294.096,149.767 294.348 C 149.706 294.601,150.025 294.889,150.476 294.990 C 151.188 295.148,151.912 295.125,154.397 294.868 C 154.807 294.825,154.816 294.707,154.444 294.259 C 154.067 293.804,154.092 293.704,154.584 293.704 C 154.915 293.704,155.185 293.891,155.185 294.119 C 155.185 294.407,155.357 294.393,155.741 294.074 C 156.511 293.435,156.435 293.131,155.488 293.060 C 155.043 293.026,154.533 292.738,154.355 292.420 C 154.066 291.903,153.971 291.902,153.471 292.402 C 151.919 293.954,149.624 292.148,149.472 289.255 C 149.413 288.137,149.438 287.432,149.529 287.687 C 149.619 287.943,149.838 288.063,150.015 287.953 C 150.193 287.844,150.260 287.551,150.164 287.303 C 150.038 286.975,150.523 286.884,151.940 286.968 C 153.271 287.048,154.124 286.905,154.630 286.517 C 155.291 286.010,155.301 285.948,154.722 285.938 C 154.366 285.931,154.074 285.749,154.074 285.534 C 154.074 285.318,154.262 285.258,154.492 285.400 C 154.738 285.552,154.846 285.463,154.753 285.185 C 154.666 284.924,154.019 284.661,153.316 284.600 C 152.328 284.515,152.206 284.563,152.778 284.811 C 153.453 285.105,153.435 285.135,152.574 285.159 C 152.055 285.173,151.471 285.030,151.278 284.840 C 151.060 284.627,150.587 284.679,150.037 284.976 M161.135 285.029 C 161.401 285.349,161.387 285.570,161.088 285.755 C 160.851 285.901,160.533 285.819,160.380 285.572 C 160.192 285.267,160.035 285.380,159.893 285.924 C 159.738 286.516,159.822 286.672,160.212 286.522 C 160.533 286.399,160.741 286.550,160.741 286.907 C 160.741 287.294,160.509 287.433,160.061 287.316 C 159.273 287.110,158.005 289.937,158.411 290.995 C 158.561 291.385,158.498 291.512,158.237 291.351 C 158.012 291.212,157.729 291.261,157.607 291.458 C 157.227 292.074,157.784 293.529,158.592 294.034 C 159.294 294.472,159.346 294.445,159.161 293.739 C 159.049 293.312,159.092 293.045,159.255 293.146 C 159.418 293.246,159.651 293.072,159.772 292.757 C 160.200 291.641,163.639 292.194,163.908 293.422 C 164.031 293.980,164.269 294.521,164.438 294.626 C 164.607 294.730,164.652 294.456,164.537 294.017 C 164.390 293.454,164.460 293.299,164.773 293.492 C 165.425 293.895,166.250 293.052,166.030 292.209 C 165.813 291.382,165.351 291.260,165.029 291.944 C 164.909 292.199,164.900 291.942,165.009 291.373 C 165.239 290.174,163.785 286.667,163.058 286.667 C 162.802 286.667,162.595 286.375,162.598 286.019 C 162.603 285.465,162.656 285.451,162.963 285.926 C 163.160 286.231,163.325 286.299,163.328 286.076 C 163.336 285.483,162.139 284.541,161.395 284.555 C 160.925 284.565,160.855 284.692,161.135 285.029 M166.956 284.865 C 166.637 285.062,166.646 285.269,166.989 285.683 C 167.364 286.134,167.325 286.308,166.780 286.626 C 166.146 286.994,167.036 287.271,168.241 287.081 C 168.394 287.057,168.519 288.704,168.519 290.741 C 168.519 292.778,168.644 294.445,168.796 294.445 C 168.949 294.446,169.019 293.279,168.951 291.853 C 168.868 290.097,168.963 289.259,169.247 289.259 C 169.541 289.259,169.591 289.926,169.415 291.481 C 169.199 293.391,169.248 293.704,169.767 293.704 C 170.281 293.704,170.370 293.197,170.370 290.275 L 170.370 286.847 172.042 286.979 C 173.690 287.111,173.709 287.099,173.362 286.187 C 173.169 285.678,173.111 285.161,173.234 285.038 C 173.509 284.763,173.077 284.713,169.895 284.650 C 168.514 284.623,167.191 284.720,166.956 284.865 M177.284 284.933 C 176.206 285.766,172.807 294.067,173.330 294.590 C 173.581 294.840,173.704 294.794,173.704 294.448 C 173.704 294.091,173.857 294.142,174.203 294.615 C 174.827 295.468,175.556 295.065,175.556 293.867 C 175.556 293.370,175.764 292.951,176.019 292.937 C 176.273 292.923,176.148 292.768,175.741 292.593 C 175.232 292.374,175.841 292.266,177.685 292.248 C 180.105 292.225,180.370 292.293,180.370 292.941 C 180.370 293.336,180.540 293.765,180.747 293.893 C 180.954 294.021,181.038 294.263,180.934 294.431 C 180.735 294.753,181.574 295.185,182.398 295.185 C 183.087 295.185,183.407 294.124,182.938 293.394 C 182.602 292.872,182.569 292.905,182.718 293.611 C 182.814 294.069,182.716 294.553,182.500 294.687 C 182.235 294.850,182.180 294.480,182.330 293.555 C 182.584 291.987,182.327 291.002,181.756 291.356 C 181.542 291.488,181.473 291.424,181.603 291.215 C 181.898 290.736,180.790 287.407,180.336 287.407 C 180.151 287.407,180.020 287.282,180.044 287.130 C 180.230 285.950,179.963 285.388,179.505 285.991 C 179.066 286.567,179.002 286.563,178.604 285.925 C 178.278 285.404,178.279 285.203,178.606 285.094 C 178.870 285.006,178.808 284.863,178.443 284.723 C 178.117 284.598,177.595 284.692,177.284 284.933 M184.284 284.775 C 183.566 285.937,184.139 294.817,184.946 295.019 C 187.147 295.572,191.292 295.032,191.413 294.177 C 191.589 292.940,190.835 292.379,189.204 292.534 C 186.736 292.770,185.920 292.387,185.963 291.011 C 185.998 289.858,186.011 289.848,186.324 290.741 C 186.590 291.500,186.614 291.433,186.454 290.370 C 185.915 286.765,185.720 286.111,185.185 286.111 C 184.847 286.111,184.641 285.785,184.659 285.278 C 184.691 284.377,184.603 284.259,184.284 284.775 M194.722 284.700 C 194.366 284.793,193.973 285.273,193.849 285.768 C 193.712 286.316,193.355 286.667,192.936 286.667 C 192.120 286.667,191.127 288.215,191.799 288.439 C 192.032 288.517,192.222 288.910,192.222 289.312 C 192.222 289.714,192.067 289.948,191.877 289.831 C 191.688 289.713,191.412 289.813,191.265 290.051 C 191.085 290.342,191.158 290.385,191.487 290.182 C 191.847 289.959,191.912 290.049,191.731 290.522 C 191.451 291.251,192.097 292.714,192.569 292.422 C 192.740 292.317,193.106 292.520,193.384 292.874 C 193.841 293.457,193.827 293.470,193.241 293.010 C 192.410 292.359,192.382 293.070,193.206 293.893 C 194.536 295.223,197.065 295.573,198.816 294.668 C 199.981 294.065,201.410 292.593,200.829 292.593 C 200.611 292.593,200.348 292.801,200.245 293.056 C 200.103 293.409,200.052 293.402,200.029 293.029 C 199.985 292.281,201.003 291.370,201.238 291.948 C 201.378 292.292,201.529 292.267,201.836 291.852 C 202.331 291.184,202.060 287.662,201.500 287.475 C 201.286 287.404,201.111 287.092,201.111 286.781 C 201.111 286.434,200.899 286.298,200.560 286.429 C 200.242 286.551,200.046 286.450,200.097 286.190 C 200.150 285.918,199.821 285.773,199.259 285.824 C 198.750 285.870,198.549 285.812,198.812 285.695 C 200.466 284.963,196.971 284.112,194.722 284.700 M217.919 284.980 C 217.829 285.216,217.801 287.567,217.859 290.205 L 217.963 295.000 221.481 295.000 C 224.855 295.000,225.005 294.965,225.119 294.161 C 225.185 293.700,225.410 293.428,225.619 293.558 C 225.841 293.695,225.819 293.456,225.567 292.984 C 225.178 292.257,224.872 292.183,222.564 292.258 C 219.729 292.350,219.455 292.243,219.793 291.181 C 219.990 290.559,220.213 290.496,221.325 290.747 C 222.040 290.909,222.910 290.986,223.257 290.919 C 223.605 290.852,224.192 290.785,224.562 290.769 C 225.072 290.748,225.206 290.495,225.117 289.722 C 225.004 288.736,224.921 288.700,222.500 288.594 C 218.796 288.432,218.694 287.037,222.386 287.037 C 224.667 287.037,225.918 286.541,224.542 286.182 C 223.925 286.021,223.925 286.009,224.537 285.969 C 225.485 285.906,225.329 285.369,224.215 284.862 C 222.985 284.301,218.145 284.392,217.919 284.980 M236.624 284.703 C 236.601 284.866,236.608 285.333,236.641 285.741 C 236.683 286.273,236.608 286.347,236.375 286.004 C 236.155 285.681,236.049 285.896,236.049 286.667 C 236.049 287.444,236.154 287.655,236.379 287.329 C 236.575 287.047,236.608 288.551,236.462 291.019 C 236.229 294.963,236.681 296.812,237.300 294.444 C 237.539 293.531,238.036 293.483,238.263 294.352 C 238.429 294.986,238.486 294.701,238.650 292.407 C 238.697 291.760,238.927 291.681,240.472 291.779 C 243.028 291.941,244.651 290.352,244.292 288.039 C 244.047 286.467,243.168 285.385,242.481 285.810 C 242.268 285.941,242.222 285.855,242.374 285.610 C 242.534 285.350,242.308 285.056,241.805 284.870 C 240.688 284.457,236.678 284.328,236.624 284.703 M264.766 285.128 C 264.516 288.293,264.566 294.815,264.841 294.815 C 265.030 294.815,265.185 294.565,265.185 294.259 C 265.185 293.589,266.520 293.513,266.810 294.167 C 266.948 294.477,267.005 294.447,266.982 294.074 C 266.826 291.443,267.424 290.808,268.716 292.235 C 269.091 292.650,269.640 292.896,269.936 292.782 C 270.373 292.615,270.389 292.679,270.022 293.122 C 269.656 293.563,269.706 293.817,270.285 294.438 C 270.921 295.120,271.055 295.143,271.472 294.641 C 271.752 294.304,271.787 294.074,271.558 294.074 C 271.346 294.074,271.089 294.282,270.986 294.537 C 270.874 294.814,270.787 294.739,270.770 294.352 C 270.754 293.995,270.981 293.704,271.274 293.704 C 272.150 293.704,272.339 292.965,271.655 292.210 C 271.044 291.534,271.067 291.444,272.174 290.183 C 273.541 288.626,273.707 287.407,272.552 287.407 C 271.898 287.407,271.810 287.253,272.011 286.452 C 272.221 285.616,272.157 285.526,271.498 285.735 C 270.917 285.920,270.796 285.842,270.968 285.395 C 271.118 285.003,270.967 284.801,270.503 284.773 C 265.673 284.475,264.814 284.529,264.766 285.128 M275.185 284.815 C 274.680 284.934,274.432 285.133,274.633 285.257 C 274.861 285.397,274.930 287.332,274.815 290.351 L 274.630 295.220 278.182 295.158 L 281.734 295.096 281.270 293.752 C 280.790 292.362,280.754 292.346,277.870 292.259 C 275.184 292.177,276.335 290.741,279.086 290.741 C 280.876 290.741,281.559 290.599,281.714 290.195 C 282.101 289.186,280.914 288.519,278.730 288.519 C 276.966 288.519,276.667 288.419,276.667 287.831 C 276.667 287.244,276.966 287.143,278.713 287.143 C 280.674 287.143,281.805 286.747,280.834 286.400 C 280.550 286.299,280.456 285.898,280.591 285.361 C 280.819 284.454,277.945 284.163,275.185 284.815 M283.411 284.923 C 283.010 285.424,283.020 294.255,283.422 294.657 C 284.458 295.693,285.556 295.090,285.556 293.486 C 285.556 291.627,286.857 291.126,287.883 292.590 C 288.167 292.996,288.519 293.210,288.664 293.064 C 288.809 292.919,288.828 293.060,288.706 293.378 C 288.585 293.696,288.746 294.172,289.066 294.437 C 289.558 294.846,289.611 294.827,289.413 294.312 C 289.242 293.867,289.389 293.704,289.960 293.704 C 290.420 293.704,290.741 293.467,290.741 293.126 C 290.741 292.809,290.608 292.631,290.446 292.731 C 289.870 293.087,290.196 291.232,290.819 290.610 C 291.541 289.888,292.059 287.671,291.657 287.022 C 291.487 286.746,291.304 286.723,291.157 286.957 C 291.014 287.185,290.744 287.129,290.448 286.811 C 290.056 286.388,290.070 286.296,290.529 286.296 C 290.903 286.296,291.008 286.088,290.846 285.667 C 290.695 285.273,290.549 285.204,290.457 285.482 C 290.375 285.726,290.031 285.923,289.691 285.920 C 289.204 285.916,289.180 285.848,289.577 285.596 C 290.454 285.041,289.297 284.663,286.422 284.565 C 284.693 284.506,283.644 284.631,283.411 284.923 M227.407 285.561 C 227.407 286.025,227.245 286.240,227.007 286.093 C 226.787 285.957,226.995 286.445,227.470 287.177 C 228.382 288.584,229.018 288.960,228.642 287.870 C 228.461 287.344,228.530 287.361,229.012 287.963 C 229.819 288.970,229.861 288.845,227.778 291.667 C 225.622 294.587,225.602 294.666,226.944 294.925 C 227.794 295.089,228.219 294.848,229.500 293.475 L 231.037 291.829 231.879 293.229 C 232.342 293.999,232.761 294.684,232.809 294.751 C 232.858 294.818,233.330 294.920,233.860 294.978 C 234.557 295.055,234.723 294.965,234.463 294.652 C 234.266 294.415,234.208 293.828,234.333 293.349 C 234.506 292.689,234.443 292.550,234.075 292.777 C 233.758 292.973,233.679 292.933,233.847 292.660 C 233.989 292.431,233.813 291.797,233.456 291.252 C 233.099 290.708,232.800 289.578,232.792 288.742 C 232.781 287.588,232.644 287.252,232.222 287.346 C 231.917 287.414,231.796 287.340,231.954 287.182 C 232.585 286.550,233.686 286.652,233.436 287.319 C 233.225 287.882,233.273 287.899,233.820 287.455 C 234.645 286.784,234.608 286.231,233.686 285.442 C 232.865 284.738,232.050 284.944,232.369 285.774 C 232.477 286.056,232.417 286.248,232.235 286.199 C 232.053 286.151,231.642 286.444,231.322 286.852 C 230.798 287.520,230.695 287.535,230.278 287.005 C 230.023 286.681,229.565 286.500,229.259 286.602 C 228.821 286.748,228.794 286.676,229.130 286.264 C 229.617 285.666,229.155 285.076,228.056 284.891 C 227.609 284.816,227.407 285.025,227.407 285.561 M205.794 286.111 C 205.488 286.417,204.944 286.667,204.585 286.667 C 203.992 286.667,203.998 286.617,204.651 286.123 C 205.648 285.369,206.545 285.360,205.794 286.111 M247.456 286.111 C 247.394 286.543,247.271 286.659,247.162 286.389 C 246.744 285.352,245.925 285.940,245.873 287.315 L 245.821 288.704 245.556 287.222 C 245.384 286.263,245.296 287.309,245.306 290.185 C 245.320 294.365,245.335 294.453,245.556 291.667 L 245.790 288.704 245.917 291.296 C 245.986 292.722,246.019 294.181,245.989 294.537 C 245.900 295.601,252.423 295.505,252.702 294.438 C 253.036 293.159,251.979 292.516,249.769 292.654 L 247.801 292.778 247.682 289.074 C 247.617 287.037,247.515 285.704,247.456 286.111 M113.148 288.148 C 113.148 288.973,112.976 289.087,111.574 289.188 C 110.025 289.300,109.298 288.233,110.265 287.266 C 110.978 286.553,113.148 287.216,113.148 288.148 M198.364 287.806 C 198.826 288.241,199.383 288.485,199.602 288.350 C 199.821 288.215,200.000 288.281,200.000 288.497 C 200.000 288.712,199.844 288.889,199.654 288.889 C 199.464 288.889,199.377 289.267,199.461 289.730 C 199.639 290.710,198.372 292.357,197.143 292.746 C 195.827 293.161,194.074 291.651,194.074 290.103 C 194.074 287.416,196.542 286.095,198.364 287.806 M241.324 287.942 C 241.644 289.215,241.264 289.630,239.780 289.630 C 238.582 289.630,238.505 289.559,238.661 288.611 C 238.753 288.051,238.842 287.468,238.858 287.315 C 238.945 286.526,241.107 287.076,241.324 287.942 M259.644 287.610 C 259.950 287.979,260.205 288.045,260.360 287.795 C 260.492 287.582,260.598 288.480,260.597 289.791 C 260.595 291.102,260.485 292.108,260.352 292.025 C 260.218 291.943,259.793 292.115,259.406 292.407 C 258.354 293.204,257.112 293.072,256.094 292.054 C 255.383 291.343,255.185 291.275,255.185 291.745 C 255.185 292.075,255.091 292.252,254.976 292.137 C 254.630 291.791,255.399 288.287,255.959 287.654 C 256.637 286.889,259.022 286.861,259.644 287.610 M270.200 287.824 C 270.507 288.791,269.883 289.246,268.241 289.254 C 267.149 289.259,267.037 289.156,267.037 288.148 C 267.037 286.696,269.753 286.417,270.200 287.824 M288.868 287.480 C 290.108 288.255,289.171 289.259,287.209 289.259 C 285.032 289.259,284.642 287.568,286.759 287.305 C 287.421 287.223,288.007 287.129,288.061 287.096 C 288.114 287.064,288.478 287.236,288.868 287.480 M162.103 289.080 C 162.157 290.125,162.035 290.370,161.464 290.370 C 160.866 290.370,160.812 290.231,161.110 289.448 C 161.303 288.940,161.363 288.272,161.245 287.962 C 161.101 287.589,161.198 287.465,161.533 287.594 C 161.810 287.702,162.067 288.370,162.103 289.080 M164.421 290.135 C 164.408 290.366,164.233 290.143,164.032 289.639 C 163.727 288.874,163.601 288.813,163.279 289.268 C 162.965 289.713,162.934 289.689,163.113 289.136 C 163.234 288.763,163.340 288.180,163.348 287.840 C 163.356 287.500,163.606 287.783,163.903 288.468 C 164.201 289.154,164.434 289.904,164.421 290.135 M178.342 288.704 C 179.270 289.479,179.287 290.370,178.372 290.370 C 177.602 290.370,177.509 290.200,177.514 288.796 C 177.517 287.931,177.604 287.472,177.708 287.778 C 177.813 288.083,178.098 288.500,178.342 288.704 M278.142 290.093 C 278.146 290.245,277.914 290.370,277.627 290.370 C 277.282 290.370,277.174 290.111,277.308 289.598 C 277.498 288.873,278.125 289.244,278.142 290.093 M111.029 290.681 C 111.230 291.283,110.550 291.219,110.025 290.585 C 109.674 290.163,109.716 290.078,110.237 290.155 C 110.594 290.207,110.950 290.444,111.029 290.681 M274.175 291.852 C 274.175 292.769,274.247 293.144,274.335 292.685 C 274.424 292.227,274.424 291.477,274.335 291.019 C 274.247 290.560,274.175 290.935,274.175 291.852 M170.834 292.037 C 170.838 292.852,170.914 293.142,171.003 292.681 C 171.091 292.220,171.088 291.553,170.995 291.199 C 170.903 290.845,170.830 291.222,170.834 292.037 M276.181 292.500 C 276.088 292.856,276.012 292.565,276.012 291.852 C 276.012 291.139,276.088 290.847,276.181 291.204 C 276.274 291.560,276.274 292.144,276.181 292.500 M272.583 293.948 C 273.141 294.224,273.046 294.735,272.400 294.935 C 272.007 295.057,272.034 295.092,272.493 295.050 C 273.241 294.981,273.391 294.000,272.676 293.855 C 272.416 293.802,272.375 293.844,272.583 293.948 " stroke="none" fill="#a893d9" fill-rule="evenodd"></path><path id="path3" d="M182.290 175.739 C 182.058 176.249,182.011 176.667,182.187 176.667 C 182.495 176.667,183.049 175.147,182.823 174.922 C 182.763 174.861,182.523 175.229,182.290 175.739 M170.650 201.296 C 170.553 201.806,170.617 202.222,170.792 202.222 C 170.968 202.222,171.111 201.806,171.111 201.296 C 171.111 200.787,171.047 200.370,170.969 200.370 C 170.891 200.370,170.747 200.787,170.650 201.296 M184.352 278.780 C 184.810 278.868,185.560 278.868,186.019 278.780 C 186.477 278.692,186.102 278.619,185.185 278.619 C 184.269 278.619,183.894 278.692,184.352 278.780 M234.537 278.774 C 234.894 278.867,235.477 278.867,235.833 278.774 C 236.190 278.681,235.898 278.604,235.185 278.604 C 234.472 278.604,234.181 278.681,234.537 278.774 M123.085 284.713 C 123.862 284.829,124.074 285.022,123.905 285.461 C 123.781 285.786,123.893 286.188,124.154 286.354 C 124.908 286.832,125.185 286.721,125.185 285.939 C 125.185 285.090,124.119 284.421,122.895 284.500 C 122.193 284.545,122.228 284.584,123.085 284.713 M134.352 284.844 C 133.722 285.211,133.424 286.672,133.981 286.661 C 134.581 286.649,135.219 286.018,135.112 285.542 C 135.046 285.245,135.452 284.938,136.111 284.787 L 137.222 284.532 136.111 284.500 C 135.500 284.482,134.708 284.637,134.352 284.844 M141.296 285.741 C 141.296 287.033,141.591 287.388,142.050 286.646 C 142.337 286.181,141.956 284.444,141.567 284.444 C 141.418 284.444,141.296 285.028,141.296 285.741 M151.326 284.862 C 151.569 285.257,152.986 285.277,153.587 284.895 C 153.830 284.740,153.380 284.599,152.576 284.578 C 151.779 284.557,151.216 284.685,151.326 284.862 M160.833 284.690 C 160.249 284.925,160.218 286.038,160.801 285.844 C 161.038 285.765,161.273 285.418,161.324 285.073 C 161.374 284.727,161.389 284.458,161.356 284.474 C 161.323 284.490,161.088 284.587,160.833 284.690 M165.940 285.158 C 165.358 286.246,165.823 287.118,166.728 286.634 C 167.326 286.314,167.373 286.146,166.992 285.687 C 166.618 285.236,166.631 285.064,167.061 284.792 C 167.500 284.514,167.482 284.455,166.957 284.450 C 166.608 284.447,166.150 284.766,165.940 285.158 M172.778 284.728 C 172.981 284.878,173.204 285.333,173.272 285.741 C 173.473 286.950,173.964 287.161,174.162 286.124 C 174.292 285.443,174.150 285.054,173.679 284.802 C 172.900 284.385,172.237 284.330,172.778 284.728 M184.585 284.982 C 184.303 285.718,184.777 286.390,185.408 286.148 C 185.794 286.000,185.927 286.300,185.932 287.326 C 185.935 288.084,186.099 288.954,186.296 289.259 C 186.551 289.654,186.657 289.206,186.661 287.712 C 186.668 285.158,185.239 283.279,184.585 284.982 M224.352 284.876 C 225.351 285.382,225.419 285.810,224.537 286.041 C 223.938 286.198,223.940 286.214,224.559 286.253 C 224.982 286.280,225.132 286.467,224.968 286.759 C 224.770 287.109,224.818 287.119,225.162 286.802 C 225.947 286.079,225.490 284.641,224.444 284.542 L 223.519 284.454 224.352 284.876 M226.638 284.537 C 226.381 285.378,226.468 285.913,226.888 286.074 C 227.231 286.205,227.407 286.011,227.407 285.504 C 227.407 284.962,227.576 284.800,227.982 284.956 C 228.312 285.083,228.460 285.021,228.331 284.811 C 228.137 284.498,226.720 284.269,226.638 284.537 M233.333 285.033 C 233.333 285.320,233.510 285.556,233.726 285.556 C 233.941 285.556,234.016 285.720,233.892 285.922 C 233.765 286.126,233.903 286.197,234.203 286.081 C 234.500 285.968,234.703 285.608,234.655 285.283 C 234.547 284.546,233.333 284.316,233.333 285.033 M245.647 284.907 C 245.427 285.183,245.390 286.043,245.556 287.037 L 245.833 288.704 245.880 287.315 C 245.923 286.007,246.994 285.169,247.063 286.389 C 247.077 286.644,247.221 286.519,247.382 286.111 C 247.771 285.128,247.480 284.444,246.672 284.444 C 246.312 284.444,245.850 284.653,245.647 284.907 M256.478 284.821 C 256.350 285.028,256.090 285.101,255.900 284.984 C 255.711 284.867,255.556 284.957,255.556 285.185 C 255.556 285.413,255.410 285.509,255.233 285.400 C 254.776 285.118,252.978 287.386,253.200 287.963 C 253.322 288.282,253.837 287.989,254.747 287.082 C 256.360 285.476,257.209 284.444,256.919 284.444 C 256.804 284.444,256.606 284.614,256.478 284.821 M257.778 284.832 C 257.372 285.106,257.522 285.141,258.333 284.959 C 259.695 284.655,259.991 284.443,259.043 284.450 C 258.653 284.453,258.083 284.625,257.778 284.832 M280.621 285.234 C 280.350 286.270,281.383 287.419,281.880 286.634 C 282.333 285.918,282.303 285.415,281.778 284.889 C 281.140 284.251,280.855 284.336,280.621 285.234 M117.344 285.674 C 117.268 286.118,117.312 287.065,117.443 287.778 L 117.680 289.074 117.729 287.500 C 117.756 286.634,117.944 285.926,118.148 285.926 C 118.703 285.926,118.594 285.294,118.001 285.066 C 117.674 284.940,117.432 285.165,117.344 285.674 M132.178 285.232 C 132.154 285.512,132.160 285.883,132.191 286.058 C 132.223 286.232,132.068 286.592,131.847 286.858 C 131.242 287.587,132.053 287.894,132.748 287.199 C 133.483 286.464,133.493 285.779,132.778 285.185 C 132.330 284.814,132.214 284.823,132.178 285.232 M178.640 285.110 C 178.321 285.308,178.334 285.543,178.691 286.032 C 179.139 286.643,179.188 286.645,179.413 286.060 C 179.701 285.308,179.239 284.740,178.640 285.110 M211.004 285.125 C 211.047 285.210,210.847 285.841,210.560 286.529 C 209.955 287.976,210.537 288.285,211.619 287.090 C 212.203 286.445,212.200 286.357,211.584 285.686 C 211.222 285.293,210.961 285.040,211.004 285.125 M154.074 285.577 C 154.074 285.769,154.366 285.930,154.722 285.934 C 155.254 285.941,155.210 286.066,154.477 286.630 C 153.594 287.308,153.592 287.321,154.337 287.720 C 155.480 288.332,157.020 286.417,155.927 285.742 C 155.256 285.327,154.074 285.222,154.074 285.577 M193.206 285.958 C 192.690 286.562,192.682 286.667,193.152 286.667 C 193.455 286.667,193.704 286.422,193.704 286.123 C 193.704 285.791,193.921 285.662,194.259 285.792 C 194.565 285.909,194.815 285.922,194.815 285.820 C 194.815 285.258,193.726 285.351,193.206 285.958 M236.245 285.833 C 236.077 287.954,236.150 290.501,236.390 290.869 C 236.543 291.104,236.639 289.921,236.604 288.241 C 236.544 285.432,236.370 284.261,236.245 285.833 M274.313 289.855 C 274.447 295.890,274.815 296.313,274.815 290.432 C 274.815 287.954,274.827 285.805,274.843 285.657 C 274.858 285.510,274.721 285.339,274.540 285.279 C 274.353 285.217,274.254 287.217,274.313 289.855 M204.651 286.123 C 203.998 286.617,203.992 286.667,204.585 286.667 C 204.944 286.667,205.488 286.417,205.794 286.111 C 206.545 285.360,205.648 285.369,204.651 286.123 M272.104 286.167 C 271.649 286.623,271.840 287.407,272.407 287.407 C 273.025 287.407,273.102 287.088,272.654 286.383 C 272.491 286.126,272.243 286.028,272.104 286.167 M160.093 286.542 C 159.448 286.802,159.512 287.407,160.185 287.407 C 160.491 287.407,160.741 287.157,160.741 286.852 C 160.741 286.546,160.699 286.309,160.648 286.326 C 160.597 286.342,160.347 286.439,160.093 286.542 M290.212 286.574 C 290.396 286.727,290.651 286.991,290.777 287.161 C 290.904 287.331,291.109 287.206,291.233 286.883 C 291.395 286.461,291.237 286.296,290.667 286.296 C 290.232 286.296,290.027 286.421,290.212 286.574 M170.370 290.123 C 170.370 293.185,170.283 293.704,169.767 293.704 C 169.248 293.704,169.199 293.391,169.415 291.481 C 169.591 289.926,169.541 289.259,169.247 289.259 C 168.963 289.259,168.868 290.097,168.951 291.853 C 169.021 293.330,168.923 294.446,168.722 294.445 C 168.500 294.445,168.500 294.570,168.722 294.786 C 168.916 294.974,169.491 295.046,170.000 294.946 C 170.926 294.764,171.479 287.652,170.633 286.806 C 170.489 286.661,170.370 288.154,170.370 290.123 M231.952 287.175 C 231.834 287.366,231.931 287.402,232.168 287.256 C 232.428 287.095,232.722 287.323,232.909 287.827 C 233.217 288.660,233.220 288.659,233.405 287.693 C 233.593 286.709,232.484 286.313,231.952 287.175 M163.376 287.840 C 163.353 288.180,163.234 288.763,163.113 289.136 C 162.934 289.689,162.965 289.713,163.279 289.268 C 163.601 288.813,163.726 288.875,164.027 289.639 C 164.375 290.520,164.387 290.510,164.324 289.388 C 164.289 288.746,164.147 288.289,164.010 288.374 C 163.872 288.458,163.683 288.234,163.590 287.875 C 163.441 287.305,163.414 287.300,163.376 287.840 M228.611 288.324 C 228.611 289.352,229.067 289.870,229.440 289.266 C 229.568 289.059,229.434 288.549,229.142 288.132 C 228.622 287.390,228.611 287.394,228.611 288.324 M139.386 290.926 C 139.388 292.556,139.453 293.176,139.531 292.305 C 139.609 291.434,139.608 290.101,139.528 289.342 C 139.449 288.584,139.385 289.296,139.386 290.926 M262.593 289.815 C 262.593 290.799,262.710 291.488,262.853 291.345 C 263.126 291.072,263.050 288.483,262.761 288.193 C 262.668 288.100,262.593 288.830,262.593 289.815 M191.387 288.796 C 191.311 288.949,191.280 289.282,191.319 289.537 C 191.357 289.792,191.412 290.208,191.441 290.463 C 191.517 291.138,192.209 289.980,192.217 289.167 C 192.222 288.522,191.651 288.267,191.387 288.796 M245.627 292.037 C 245.600 293.870,245.708 295.120,245.868 294.815 C 246.027 294.509,246.049 293.009,245.916 291.481 L 245.675 288.704 245.627 292.037 M277.308 289.598 C 277.174 290.111,277.282 290.370,277.627 290.370 C 278.218 290.370,278.280 290.040,277.823 289.321 C 277.585 288.945,277.462 289.011,277.308 289.598 M208.047 289.977 C 207.911 290.498,208.028 290.860,208.378 290.994 C 209.166 291.297,209.261 291.040,208.729 290.046 L 208.258 289.168 208.047 289.977 M211.852 290.185 C 211.852 290.694,211.916 291.111,211.994 291.111 C 212.072 291.111,212.216 290.694,212.313 290.185 C 212.410 289.676,212.346 289.259,212.171 289.259 C 211.995 289.259,211.852 289.676,211.852 290.185 M280.370 289.957 C 280.370 290.137,280.713 290.374,281.132 290.483 C 281.757 290.647,281.816 290.588,281.457 290.156 C 280.968 289.567,280.370 289.457,280.370 289.957 M110.025 290.585 C 110.550 291.219,111.230 291.283,111.029 290.681 C 110.950 290.444,110.594 290.207,110.237 290.155 C 109.716 290.078,109.674 290.163,110.025 290.585 M117.340 290.191 C 117.135 290.395,117.394 293.786,117.634 294.043 C 117.713 294.128,117.778 293.253,117.778 292.099 C 117.778 290.040,117.724 289.807,117.340 290.191 M132.222 290.291 C 132.222 290.538,132.389 290.741,132.593 290.741 C 132.796 290.741,132.963 291.241,132.963 291.852 C 132.963 292.463,133.133 292.963,133.340 292.963 C 133.837 292.963,133.395 291.090,132.732 290.384 C 132.383 290.012,132.222 289.983,132.222 290.291 M185.926 291.049 C 185.926 291.694,186.096 292.222,186.303 292.222 C 186.527 292.222,186.581 291.808,186.436 291.204 C 186.088 289.750,185.926 289.701,185.926 291.049 M165.000 291.111 C 164.861 291.549,164.831 291.991,164.932 292.093 C 165.034 292.195,165.231 291.920,165.370 291.481 C 165.509 291.043,165.540 290.602,165.438 290.500 C 165.336 290.398,165.139 290.673,165.000 291.111 M276.012 291.852 C 276.012 292.565,276.088 292.856,276.181 292.500 C 276.274 292.144,276.274 291.560,276.181 291.204 C 276.088 290.847,276.012 291.139,276.012 291.852 M200.483 292.041 C 200.011 292.550,199.965 294.139,200.431 293.851 C 200.584 293.757,200.620 293.450,200.512 293.169 C 200.404 292.887,200.574 292.601,200.889 292.532 C 201.215 292.461,201.347 292.226,201.194 291.985 C 200.998 291.676,200.807 291.691,200.483 292.041 M154.297 292.371 C 154.504 292.911,155.926 293.462,155.926 293.002 C 155.926 292.574,155.073 291.852,154.567 291.852 C 154.309 291.852,154.187 292.085,154.297 292.371 M125.787 292.518 C 125.349 293.227,126.152 293.706,126.874 293.167 C 127.561 292.653,127.553 292.639,126.701 292.855 C 126.079 293.012,125.890 292.950,126.075 292.651 C 126.221 292.415,126.257 292.222,126.155 292.222 C 126.053 292.222,125.887 292.355,125.787 292.518 M160.652 292.484 C 161.113 292.573,161.780 292.569,162.134 292.477 C 162.488 292.384,162.111 292.312,161.296 292.316 C 160.481 292.320,160.192 292.396,160.652 292.484 M175.225 292.385 C 175.520 292.681,180.370 292.794,180.370 292.505 C 180.370 292.349,179.176 292.222,177.716 292.222 C 176.256 292.222,175.135 292.296,175.225 292.385 M157.143 292.822 C 157.269 292.948,157.108 293.316,156.785 293.639 C 156.393 294.030,156.338 294.273,156.619 294.367 C 156.852 294.444,156.943 294.668,156.822 294.863 C 156.695 295.069,157.036 295.161,157.631 295.081 C 158.803 294.924,159.242 294.186,158.364 293.849 C 158.042 293.726,157.778 293.392,157.778 293.109 C 157.778 292.825,157.583 292.593,157.346 292.593 C 157.108 292.593,157.017 292.696,157.143 292.822 M281.204 293.853 C 281.255 294.546,281.421 295.036,281.574 294.942 C 281.991 294.686,281.909 292.593,281.482 292.593 C 281.278 292.593,281.153 293.160,281.204 293.853 M107.659 293.889 C 107.943 295.306,107.891 295.264,109.030 294.978 C 110.371 294.641,110.290 293.704,108.920 293.704 C 108.326 293.704,107.749 293.495,107.638 293.241 C 107.527 292.986,107.537 293.278,107.659 293.889 M165.755 293.311 C 165.604 293.555,165.247 293.665,164.963 293.555 C 164.404 293.341,164.312 293.669,164.669 294.599 C 164.960 295.358,166.151 295.357,166.442 294.598 C 166.741 293.819,166.138 292.690,165.755 293.311 M182.251 293.735 C 182.233 294.347,182.420 294.691,182.772 294.691 C 183.113 294.691,183.202 294.539,183.007 294.290 C 182.834 294.069,182.599 293.639,182.486 293.333 C 182.364 293.002,182.269 293.164,182.251 293.735 M234.415 293.241 C 234.370 293.495,234.317 293.912,234.296 294.167 C 234.276 294.421,234.095 294.747,233.894 294.891 C 233.692 295.035,233.901 295.124,234.357 295.090 C 235.236 295.024,235.327 294.711,234.815 293.519 C 234.640 293.111,234.460 292.986,234.415 293.241 M271.565 293.471 C 270.464 294.015,270.663 295.033,271.844 294.899 C 272.887 294.781,273.335 294.410,272.706 294.185 C 272.463 294.098,272.356 293.787,272.468 293.495 C 272.697 292.899,272.720 292.899,271.565 293.471 M290.770 293.241 C 290.754 293.495,290.425 293.704,290.040 293.704 C 289.336 293.704,288.747 294.549,289.161 294.964 C 289.283 295.086,289.845 295.185,290.410 295.185 C 291.485 295.185,292.208 294.532,291.584 294.125 C 291.385 293.995,291.127 293.639,291.011 293.333 C 290.881 292.993,290.788 292.957,290.770 293.241 M114.815 294.225 C 114.815 294.933,114.966 295.076,115.556 294.922 C 116.468 294.683,116.534 294.076,115.648 294.068 C 115.094 294.064,115.081 294.011,115.556 293.704 C 116.030 293.397,116.017 293.344,115.463 293.339 C 115.024 293.335,114.815 293.621,114.815 294.225 M225.094 294.262 C 224.954 294.995,225.019 295.107,225.399 294.791 C 225.665 294.571,225.791 294.152,225.679 293.862 C 225.397 293.127,225.298 293.194,225.094 294.262 M266.056 293.590 C 265.233 293.751,264.543 295.206,265.312 295.159 C 266.185 295.106,266.853 294.611,266.903 293.981 C 266.932 293.625,266.932 293.356,266.903 293.384 C 266.875 293.412,266.494 293.504,266.056 293.590 M126.667 294.074 C 126.173 294.393,126.173 294.433,126.667 294.433 C 126.972 294.433,127.472 294.272,127.778 294.074 C 128.272 293.755,128.272 293.715,127.778 293.715 C 127.472 293.715,126.972 293.877,126.667 294.074 M138.148 294.490 C 138.148 295.144,138.241 295.199,138.700 294.818 C 139.257 294.356,139.138 293.704,138.497 293.704 C 138.305 293.704,138.148 294.057,138.148 294.490 M205.000 294.074 C 204.874 294.278,205.114 294.444,205.534 294.444 C 205.953 294.444,206.296 294.278,206.296 294.074 C 206.296 293.870,206.056 293.704,205.763 293.704 C 205.469 293.704,205.126 293.870,205.000 294.074 M237.300 294.444 C 237.174 294.926,237.289 295.185,237.627 295.185 C 237.914 295.185,238.148 294.852,238.148 294.444 C 238.148 294.037,238.001 293.704,237.821 293.704 C 237.641 293.704,237.407 294.037,237.300 294.444 M173.709 294.374 C 173.706 294.653,173.508 294.748,173.241 294.597 C 172.886 294.397,172.878 294.445,173.208 294.802 C 173.810 295.453,174.521 295.157,174.068 294.444 C 173.812 294.042,173.713 294.022,173.709 294.374 " stroke="none" fill="#a49cc6" fill-rule="evenodd"></path><path id="path4" d="M216.706 152.291 C 216.588 153.052,217.468 154.439,218.046 154.401 C 218.574 154.367,218.589 154.328,218.122 154.202 C 217.802 154.116,217.361 153.593,217.143 153.041 C 216.924 152.489,216.728 152.151,216.706 152.291 M232.087 165.185 C 232.212 165.694,232.541 166.611,232.820 167.222 C 233.226 168.115,233.281 168.151,233.099 167.407 C 232.974 166.898,232.644 165.981,232.365 165.370 C 231.959 164.478,231.904 164.442,232.087 165.185 M238.439 185.682 C 238.605 190.338,238.773 190.923,238.828 187.037 C 238.855 185.102,238.755 183.325,238.604 183.089 C 238.454 182.853,238.379 184.019,238.439 185.682 M189.309 188.938 C 188.870 189.994,188.572 190.918,188.647 190.993 C 188.722 191.067,189.142 190.265,189.580 189.210 C 190.019 188.155,190.317 187.230,190.242 187.155 C 190.167 187.081,189.747 187.883,189.309 188.938 M196.759 188.403 C 197.116 188.497,197.699 188.497,198.056 188.403 C 198.412 188.310,198.120 188.234,197.407 188.234 C 196.694 188.234,196.403 188.310,196.759 188.403 M239.039 197.963 C 239.039 201.222,239.096 202.506,239.165 200.816 C 239.234 199.126,239.233 196.459,239.164 194.890 C 239.095 193.321,239.038 194.704,239.039 197.963 M257.407 203.726 C 257.407 204.349,257.552 204.769,257.728 204.660 C 258.026 204.476,257.864 202.593,257.549 202.593 C 257.471 202.593,257.407 203.102,257.407 203.726 M183.393 203.905 C 182.773 205.267,182.891 205.557,183.562 204.319 C 183.876 203.741,184.063 203.199,183.978 203.114 C 183.893 203.029,183.630 203.385,183.393 203.905 M182.053 207.356 C 181.923 207.766,181.450 208.172,181.001 208.259 L 180.185 208.418 181.005 208.468 C 181.771 208.515,182.902 207.223,182.471 206.792 C 182.371 206.692,182.183 206.946,182.053 207.356 M259.152 268.518 C 259.046 268.925,259.109 269.352,259.294 269.466 C 259.479 269.580,259.630 269.247,259.630 268.726 C 259.630 267.591,259.419 267.499,259.152 268.518 M279.783 270.054 C 279.701 270.185,279.897 270.394,280.218 270.517 C 281.116 270.862,284.746 270.782,284.974 270.412 C 285.284 269.910,283.823 269.658,283.349 270.132 C 283.042 270.439,282.863 270.440,282.670 270.135 C 282.396 269.703,280.043 269.637,279.783 270.054 M262.465 271.019 C 262.370 271.171,263.261 271.296,264.444 271.296 C 265.628 271.296,266.519 271.171,266.424 271.019 C 266.330 270.866,265.439 270.741,264.444 270.741 C 263.450 270.741,262.559 270.866,262.465 271.019 M238.333 272.593 C 237.519 272.738,237.185 272.895,237.593 272.940 C 239.819 273.189,240.370 273.141,240.370 272.697 C 240.370 272.436,240.245 272.246,240.093 272.275 C 239.940 272.304,239.148 272.447,238.333 272.593 M249.630 272.593 C 249.630 272.806,250.768 272.961,252.315 272.957 C 254.185 272.953,254.831 272.843,254.444 272.593 C 253.709 272.118,249.630 272.118,249.630 272.593 M237.567 275.594 C 237.061 275.792,237.312 275.881,238.426 275.900 C 239.292 275.914,240.000 275.862,240.000 275.784 C 240.000 275.470,238.236 275.332,237.567 275.594 M249.494 275.741 C 249.581 275.969,251.024 276.047,253.244 275.945 C 256.948 275.775,256.615 275.649,251.991 275.472 C 250.343 275.408,249.405 275.510,249.494 275.741 M224.919 275.828 C 225.892 275.905,227.392 275.904,228.252 275.826 C 229.112 275.749,228.315 275.686,226.481 275.687 C 224.648 275.688,223.945 275.752,224.919 275.828 M251.759 278.410 C 252.218 278.498,252.968 278.498,253.426 278.410 C 253.884 278.321,253.509 278.249,252.593 278.249 C 251.676 278.249,251.301 278.321,251.759 278.410 " stroke="none" fill="#8175a3" fill-rule="evenodd"></path></g></svg>